REM MD5 d6f39cb7e667f9afc5498ce527ff985c
FILE "Alex Ferguson's Player Manager 2001 (Europe).bin" BINARY
  TRACK 01 MODE2/2352
    INDEX 01 00:00:00
  TRACK 02 AUDIO
    INDEX 00 04:56:03
    INDEX 01 04:58:03
  TRACK 03 AUDIO
    INDEX 00 05:07:01
    INDEX 01 05:09:01
  TRACK 04 AUDIO
    INDEX 00 06:04:10
    INDEX 01 06:06:10
  TRACK 05 AUDIO
    INDEX 00 08:39:38
    INDEX 01 08:41:38
REM LEADOUT 09:41:38
